<svg width="225" height="225" viewBox="0 0 225 225" fill="none" xmlns="http://www.w3.org/2000/svg">
<path fill-rule="evenodd" clip-rule="evenodd" d="M138.995 145.466C138.995 145.466 152.161 137.39 152.495 135.354C152.83 133.318 143.405 118.534 143.405 118.534L150.624 104.677C150.624 104.677 172.213 128.717 171.542 136.558C170.871 144.398 148.316 163.053 148.316 163.053C148.316 163.053 138.806 145.526 138.995 145.466H138.995Z" fill="#FFA775"/>
<path d="M152.861 135.777C152.742 135.777 152.628 135.736 152.537 135.66C152.446 135.584 152.385 135.479 152.363 135.363C152.342 135.247 152.362 135.127 152.42 135.024C152.478 134.921 152.57 134.842 152.681 134.8C154.157 134.267 155.764 134.217 157.271 134.658C157.335 134.674 157.395 134.703 157.448 134.743C157.501 134.783 157.546 134.833 157.58 134.89C157.613 134.947 157.636 135.01 157.645 135.076C157.654 135.141 157.651 135.208 157.634 135.272C157.618 135.337 157.589 135.397 157.549 135.45C157.509 135.503 157.46 135.548 157.402 135.582C157.345 135.615 157.282 135.638 157.217 135.647C157.151 135.656 157.084 135.653 157.02 135.636C155.715 135.249 154.32 135.287 153.038 135.743C152.981 135.765 152.921 135.776 152.861 135.777Z" fill="#29263B"/>
<path fill-rule="evenodd" clip-rule="evenodd" d="M63.8191 200.931L61.8391 214.878C64.9441 217.055 69.3852 217.828 74.2888 216.87L75.7455 204.41L63.8205 200.931H63.8191Z" fill="#FFBF9B"/>
<path fill-rule="evenodd" clip-rule="evenodd" d="M89.9928 157.819C85.3295 159.12 77.7128 160.137 74.5934 164.493C68.0288 173.663 65.2397 188.263 63.2358 201.433C66.0569 203.134 70.8332 205.249 75.0843 204.906L73.8149 216.868C93.8466 221.967 112.447 221.318 130.204 217.276C133.281 203.166 134.001 187.978 134.003 179.191L151.222 167.568C150.525 158.208 146.806 147.663 139.342 144.159L113.702 156.655L89.9924 157.819H89.9928Z" fill="#86B4FF"/>
<path d="M75.2926 205.395C75.267 205.395 75.2414 205.393 75.2161 205.389C75.0838 205.369 74.9649 205.297 74.8855 205.189C74.8062 205.082 74.773 204.947 74.7931 204.814C76.4865 193.689 77.0737 184.763 76.6417 176.724C76.6382 176.658 76.6477 176.591 76.6698 176.529C76.6918 176.466 76.726 176.409 76.7703 176.36C76.8146 176.31 76.8682 176.27 76.928 176.241C76.9878 176.213 77.0527 176.196 77.1189 176.193C77.1852 176.189 77.2514 176.199 77.314 176.221C77.3765 176.243 77.4341 176.277 77.4834 176.321C77.5327 176.366 77.5728 176.419 77.6014 176.479C77.6301 176.539 77.6466 176.604 77.6502 176.67C78.0858 184.779 77.4954 193.77 75.7917 204.966C75.7734 205.086 75.713 205.195 75.6215 205.273C75.53 205.352 75.4133 205.395 75.2926 205.395Z" fill="#29263B"/>
<path fill-rule="evenodd" clip-rule="evenodd" d="M63.8074 98.222C58.8821 96.9732 56.4656 93.6536 59.315 85.9892C50.72 80.7026 50.1026 74.4557 61.5695 66.7499C53.9951 56.7567 60.7334 47.8949 73.31 53.4254C73.9229 44.168 77.99 40.3358 87.6353 45.2768C89.5253 33.4386 105.233 31.6116 108.944 43.3818C116.324 34.9029 129.087 41.0868 127.286 50.1737C137.692 47.1474 147.536 56.2271 143.569 66.326C152.893 67.3835 154.729 76.3376 150.294 81.2705C159.935 86.1152 158.606 93.9798 152.437 96.2766C157.419 105.534 157.315 111.667 149.283 112.934C149.835 120.616 146.763 127.326 139.091 124.529C137.27 129.994 132.622 132.278 128.081 129.798L63.8074 98.222Z" fill="#29263B"/>
<path fill-rule="evenodd" clip-rule="evenodd" d="M70.8299 81.72C70.8299 81.72 52.7444 105.818 57.0518 125.017C62.1134 147.576 86.3918 146.878 93.8987 147.157C95.3117 159.318 89.4766 158.637 89.4766 158.637C85.1975 177.922 107.013 178.432 115.564 156.005C108.839 152.433 108.225 146.195 117.139 132.813C131.071 143.284 143.189 122.202 129.404 117.506C126.764 114.515 127.694 109.164 131.19 106.851C124.374 107.266 126.063 100.246 129.989 95.5147C119.799 98.3331 119.221 92.6496 123.227 85.5004C113.309 89.7849 109.589 85.0504 111.686 78.0624C103.554 86.9881 93.5711 87.1605 95.512 77.6191C86.7325 87.2424 77.7928 87.669 78.2923 79.8813C75.9811 83.4966 71.4464 84.5703 70.8286 81.7186L70.8299 81.72Z" fill="#FFA775"/>
<path fill-rule="evenodd" clip-rule="evenodd" d="M104.193 143.992C101.602 145.747 97.1284 146.912 93.897 147.156C94.1005 148.758 94.1608 150.376 94.077 151.988C98.6319 151.768 102.696 148.397 104.193 143.992Z" fill="#F08855"/>
<path d="M122.846 130.406C122.761 130.406 122.676 130.385 122.602 130.343C122.527 130.302 122.464 130.242 122.418 130.169C122.373 130.096 122.347 130.013 122.342 129.928C122.338 129.842 122.356 129.757 122.393 129.68C124.633 125.093 128.22 123.41 133.055 124.676C133.185 124.71 133.296 124.794 133.363 124.909C133.431 125.025 133.45 125.163 133.416 125.292C133.382 125.422 133.298 125.532 133.182 125.6C133.067 125.668 132.929 125.687 132.799 125.653C128.434 124.509 125.329 125.972 123.3 130.123C123.259 130.208 123.194 130.28 123.114 130.33C123.034 130.38 122.941 130.406 122.846 130.406Z" fill="#29263B"/>
<path d="M73.7722 111.357C73.6987 111.357 73.6262 111.341 73.5597 111.31C73.4931 111.279 73.4342 111.234 73.387 111.177C71.002 108.375 70.1515 105.86 70.8562 103.703C71.7877 100.85 75.2959 98.7345 81.5815 97.2338C81.646 97.2184 81.7129 97.2158 81.7784 97.2263C81.8439 97.2368 81.9066 97.26 81.9631 97.2947C82.0196 97.3295 82.0687 97.375 82.1076 97.4287C82.1465 97.4824 82.1745 97.5432 82.1899 97.6077C82.2053 97.6722 82.2078 97.7391 82.1974 97.8046C82.1869 97.8701 82.1636 97.9329 82.1289 97.9894C82.0942 98.0459 82.0487 98.095 81.995 98.1339C81.9413 98.1728 81.8804 98.2007 81.8159 98.2161C75.983 99.6089 72.6184 101.56 71.816 104.016C71.2274 105.816 72.0149 108.007 74.156 110.523C74.2187 110.596 74.2589 110.686 74.2721 110.782C74.2853 110.877 74.2709 110.975 74.2305 111.062C74.1901 111.15 74.1255 111.224 74.0442 111.276C73.963 111.328 73.8686 111.355 73.7722 111.355V111.357Z" fill="#29263B"/>
<path d="M88.0411 128.083C87.9694 128.083 87.8986 128.068 87.8333 128.038C87.7681 128.009 87.7099 127.965 87.6626 127.912C85.7447 125.734 84.0869 124.697 82.7662 124.812C81.8131 124.899 80.9662 125.577 80.1791 126.889C80.1082 126.999 79.9968 127.078 79.8687 127.108C79.7406 127.138 79.6059 127.117 79.4932 127.049C79.3805 126.981 79.2986 126.872 79.265 126.745C79.2315 126.618 79.2488 126.483 79.3133 126.368C80.2651 124.785 81.3964 123.922 82.6748 123.806C84.361 123.655 86.2469 124.777 88.42 127.244C88.4843 127.317 88.5262 127.407 88.5407 127.503C88.5551 127.599 88.5415 127.697 88.5015 127.786C88.4615 127.874 88.3968 127.95 88.3151 128.002C88.2334 128.055 88.1382 128.083 88.0411 128.083Z" fill="#29263B"/>
<path d="M113.584 94.1486C113.283 94.1481 112.993 94.0354 112.77 93.8324C112.547 93.6294 112.408 93.3506 112.379 93.0506C112.133 90.4325 111.458 88.6811 110.373 87.845C109.616 87.26 108.601 87.0845 107.268 87.305C106.951 87.3572 106.626 87.2813 106.364 87.0939C106.103 86.9066 105.927 86.6231 105.875 86.306C105.823 85.9888 105.899 85.6639 106.086 85.4027C106.273 85.1415 106.557 84.9654 106.874 84.9132C108.877 84.5834 110.553 84.924 111.853 85.9262C113.514 87.2069 114.475 89.4632 114.792 92.8233C114.822 93.1433 114.724 93.462 114.519 93.7096C114.314 93.9572 114.02 94.1133 113.7 94.1436C113.661 94.1468 113.622 94.1486 113.584 94.1486Z" fill="#29263B"/>
<path d="M70.4597 89.7781C70.2487 89.778 70.0415 89.7228 69.8584 89.6181C69.6754 89.5133 69.5228 89.3625 69.4159 89.1807C69.3089 88.9989 69.2513 88.7924 69.2486 88.5814C69.246 88.3705 69.2985 88.1626 69.4008 87.9781C70.4808 86.0251 71.726 84.892 73.2011 84.5131C74.5061 84.1779 75.9074 84.4749 77.3658 85.3942C77.6371 85.5659 77.8292 85.8381 77.8999 86.1512C77.9707 86.4643 77.9143 86.7927 77.7432 87.0643C77.5721 87.3359 77.3002 87.5285 76.9873 87.5999C76.6743 87.6712 76.3458 87.6155 76.0739 87.4449C75.1892 86.8869 74.4494 86.6961 73.8036 86.8599C73.0202 87.061 72.252 87.8323 71.5208 89.1517C71.416 89.3415 71.2624 89.4996 71.0758 89.6098C70.8891 89.72 70.6764 89.7781 70.4597 89.7781Z" fill="#29263B"/>
<path fill-rule="evenodd" clip-rule="evenodd" d="M105.718 92.56C107.135 92.925 107.743 95.3235 107.08 97.915C106.417 100.507 104.723 102.312 103.306 101.949C101.889 101.586 101.281 99.1858 101.944 96.5943C102.607 94.0027 104.3 92.1973 105.718 92.5605V92.56Z" fill="#29263B"/>
<path fill-rule="evenodd" clip-rule="evenodd" d="M72.3235 90.45C73.5876 90.7285 74.1825 92.9205 73.6492 95.3419C73.116 97.7634 71.658 99.5031 70.3926 99.2241C69.1272 98.9451 68.5336 96.7536 69.0669 94.3335C69.6001 91.9134 71.0595 90.171 72.3235 90.45Z" fill="#29263B"/>
</svg>
